<svg width="295" height="45" viewBox="0 0 295 45" fill="none" xmlns="http://www.w3.org/2000/svg">
<rect x="8.64697" y="24.9619" width="27.58" height="19.8454" fill="#C1440E"/>
<rect x="19.0825" y="35.8848" width="6.55956" height="8.92273" fill="#F7F7F7"/>
<path d="M0 30.9609L44.7988 21.8074L29.8162 0.192886L7.90128 8.42334L0 30.9609Z" fill="#060606"/>
<path d="M55.178 33.8291C53.798 33.8291 52.5798 33.6077 51.5234 33.1647C50.4671 32.7046 49.6407 32.0402 49.0444 31.1712C48.4481 30.2853 48.1499 29.1949 48.1499 27.9H52.699C52.699 28.4452 52.7927 28.9052 52.9801 29.28C53.1846 29.6549 53.4657 29.936 53.8235 30.1234C54.1983 30.2938 54.6243 30.379 55.1014 30.379C55.7999 30.379 56.3281 30.2256 56.6859 29.919C57.0607 29.5952 57.3163 29.1011 57.4526 28.4367C57.5889 27.7722 57.657 26.9033 57.657 25.8299C57.3163 26.1366 56.9244 26.3921 56.4814 26.5966C56.0384 26.784 55.5955 26.9288 55.1525 27.031C54.7265 27.1162 54.3261 27.1588 53.9513 27.1588C52.7927 27.1588 51.7364 26.9544 50.7823 26.5455C49.8452 26.1366 49.0955 25.5317 48.5333 24.7309C47.9881 23.9131 47.7155 22.9249 47.7155 21.7664C47.7155 20.4544 48.0221 19.347 48.6355 18.444C49.2489 17.5239 50.1093 16.8254 51.2167 16.3483C52.3412 15.8713 53.6617 15.6327 55.178 15.6327C56.4559 15.6327 57.5718 15.8116 58.526 16.1694C59.4801 16.5102 60.2723 17.0384 60.9027 17.7539C61.5331 18.4525 62.0017 19.347 62.3084 20.4374C62.6321 21.5278 62.7939 22.8142 62.7939 24.2965C62.7939 26.0003 62.6321 27.457 62.3084 28.6667C62.0017 29.8764 61.5331 30.8646 60.9027 31.6313C60.2723 32.3809 59.4801 32.9347 58.526 33.2925C57.5718 33.6502 56.4559 33.8291 55.178 33.8291ZM55.1269 24.092C55.6721 24.092 56.1321 23.9983 56.507 23.8109C56.8818 23.6235 57.1629 23.3509 57.3503 22.9931C57.5548 22.6182 57.657 22.1667 57.657 21.6386C57.657 21.0934 57.5548 20.6333 57.3503 20.2585C57.1629 19.8837 56.8818 19.594 56.507 19.3896C56.1492 19.1851 55.6977 19.0829 55.1525 19.0829C54.6243 19.0829 54.1728 19.1851 53.798 19.3896C53.4231 19.577 53.1335 19.8581 52.929 20.233C52.7416 20.5907 52.6479 21.0422 52.6479 21.5875C52.6479 22.1156 52.7416 22.5671 52.929 22.942C53.1164 23.3168 53.3976 23.6064 53.7724 23.8109C54.1472 23.9983 54.5987 24.092 55.1269 24.092ZM65.7583 33.5225V29.5867H69.9241V21.6386H65.7583V18.674C66.5591 18.6229 67.411 18.461 68.314 18.1884C69.234 17.9158 70.1285 17.575 70.9975 17.1661C71.8664 16.7572 72.6331 16.3398 73.2976 15.9139H75.0099V29.5867H79.0223V33.5225H65.7583ZM87.8392 33.8291C86.3228 33.8291 85.0024 33.6332 83.8779 33.2413C82.7704 32.8495 81.91 32.2702 81.2966 31.5035C80.7003 30.7368 80.4021 29.7997 80.4021 28.6922C80.4021 27.6359 80.6577 26.8096 81.1688 26.2132C81.68 25.6169 82.353 25.0802 83.1878 24.6032C82.3359 23.9216 81.7652 23.3083 81.4755 22.7631C81.1859 22.2008 81.0411 21.5534 81.0411 20.8208C81.0411 19.6963 81.3392 18.7507 81.9355 17.984C82.5489 17.2173 83.3667 16.638 84.389 16.2461C85.4283 15.8372 86.5784 15.6327 87.8392 15.6327C89.0999 15.6327 90.25 15.8372 91.2893 16.2461C92.3286 16.638 93.155 17.2173 93.7683 17.984C94.3817 18.7507 94.6884 19.6963 94.6884 20.8208C94.6884 21.5875 94.535 22.2519 94.2283 22.8142C93.9387 23.3594 93.3764 23.9557 92.5416 24.6032C93.3935 25.0802 94.075 25.6169 94.5861 26.2132C95.0973 26.8096 95.3528 27.6359 95.3528 28.6922C95.3528 29.7997 95.0376 30.7368 94.4072 31.5035C93.7939 32.2702 92.9249 32.8495 91.8004 33.2413C90.6759 33.6332 89.3555 33.8291 87.8392 33.8291ZM87.8392 30.379C88.5377 30.379 89.117 30.2001 89.577 29.8423C90.037 29.4845 90.267 28.9648 90.267 28.2833C90.267 27.5848 90.02 27.0651 89.5259 26.7244C89.0488 26.3666 88.4866 26.1877 87.8392 26.1877C87.2088 26.1877 86.655 26.3666 86.178 26.7244C85.7179 27.0651 85.4879 27.5848 85.4879 28.2833C85.4879 28.9648 85.7094 29.4845 86.1524 29.8423C86.5954 30.2001 87.1576 30.379 87.8392 30.379ZM87.8392 22.942C88.4866 22.942 89.0488 22.7971 89.5259 22.5075C90.02 22.2008 90.267 21.7067 90.267 21.0252C90.267 20.3267 90.037 19.8326 89.577 19.5429C89.117 19.2362 88.5377 19.0829 87.8392 19.0829C87.1576 19.0829 86.5954 19.2362 86.1524 19.5429C85.7094 19.8326 85.4879 20.3267 85.4879 21.0252C85.4879 21.7067 85.7179 22.2008 86.178 22.5075C86.655 22.7971 87.2088 22.942 87.8392 22.942Z" fill="#C1440E"/>
<path d="M97.3972 33.5225V20.0796H99.2117L99.4162 22.303H99.5951C99.7314 21.8771 99.9188 21.4767 100.157 21.1019C100.396 20.71 100.72 20.3948 101.128 20.1563C101.537 19.9007 102.04 19.7729 102.636 19.7729C102.892 19.7729 103.122 19.7985 103.326 19.8496C103.548 19.8837 103.71 19.9263 103.812 19.9774V22.0475H102.969C102.389 22.0475 101.887 22.1497 101.461 22.3542C101.052 22.5416 100.711 22.8142 100.438 23.172C100.166 23.5298 99.9614 23.9557 99.8251 24.4498C99.7058 24.9439 99.6462 25.4721 99.6462 26.0343V33.5225H97.3972ZM110.233 33.8291C108.905 33.8291 107.78 33.5821 106.86 33.088C105.957 32.5769 105.267 31.8016 104.79 30.7623C104.33 29.723 104.1 28.4026 104.1 26.801C104.1 25.1824 104.33 23.862 104.79 22.8397C105.267 21.8004 105.965 21.0337 106.886 20.5396C107.806 20.0285 108.956 19.7729 110.336 19.7729C111.596 19.7729 112.653 20.02 113.505 20.5141C114.357 20.9911 114.996 21.7152 115.421 22.6864C115.864 23.6405 116.086 24.8417 116.086 26.2899V27.3633H106.425C106.46 28.4367 106.613 29.3226 106.886 30.0212C107.175 30.7027 107.601 31.2053 108.163 31.529C108.726 31.8357 109.433 31.9891 110.285 31.9891C110.864 31.9891 111.366 31.9209 111.792 31.7846C112.235 31.6313 112.602 31.4183 112.891 31.1457C113.198 30.8731 113.428 30.5494 113.581 30.1745C113.735 29.7997 113.82 29.3908 113.837 28.9478H116.035C116.018 29.6634 115.881 30.3279 115.626 30.9412C115.37 31.5376 114.996 32.0487 114.501 32.4746C114.007 32.9006 113.402 33.2328 112.687 33.4713C111.971 33.7099 111.153 33.8291 110.233 33.8291ZM106.477 25.6765H113.76C113.76 24.9269 113.675 24.2965 113.505 23.7853C113.334 23.2742 113.087 22.8568 112.764 22.5331C112.457 22.2093 112.091 21.9793 111.665 21.843C111.256 21.6897 110.787 21.613 110.259 21.613C109.475 21.613 108.811 21.7578 108.266 22.0475C107.72 22.3371 107.303 22.7801 107.013 23.3764C106.724 23.9728 106.545 24.7395 106.477 25.6765ZM121.475 33.8291C120.981 33.8291 120.486 33.7695 119.992 33.6502C119.498 33.531 119.038 33.335 118.612 33.0624C118.186 32.7898 117.846 32.415 117.59 31.9379C117.334 31.4438 117.207 30.8305 117.207 30.0979C117.207 29.1778 117.428 28.4196 117.871 27.8233C118.314 27.227 118.927 26.767 119.711 26.4432C120.512 26.1025 121.458 25.8725 122.548 25.7532C123.638 25.6169 124.823 25.5488 126.1 25.5488V24.0153C126.1 23.5213 126.015 23.0953 125.845 22.7375C125.674 22.3797 125.368 22.1071 124.925 21.9197C124.499 21.7152 123.885 21.613 123.085 21.613C122.318 21.613 121.705 21.7152 121.245 21.9197C120.802 22.1071 120.486 22.3542 120.299 22.6608C120.129 22.9675 120.043 23.3083 120.043 23.6831V24.0665H117.871C117.854 23.9813 117.846 23.8961 117.846 23.8109C117.846 23.7257 117.846 23.6235 117.846 23.5042C117.846 22.6864 118.067 22.0049 118.51 21.4597C118.97 20.8974 119.609 20.48 120.427 20.2074C121.245 19.9178 122.182 19.7729 123.238 19.7729C124.363 19.7729 125.3 19.9348 126.049 20.2585C126.816 20.5822 127.387 21.0422 127.762 21.6386C128.153 22.2349 128.349 22.9505 128.349 23.7853V31.069C128.349 31.3927 128.426 31.6227 128.579 31.759C128.733 31.8783 128.92 31.9379 129.142 31.9379H130.138V33.4202C129.9 33.5225 129.636 33.6077 129.346 33.6758C129.056 33.761 128.724 33.8036 128.349 33.8036C127.906 33.8036 127.54 33.7099 127.25 33.5225C126.961 33.3521 126.739 33.1136 126.586 32.8069C126.433 32.4832 126.33 32.1254 126.279 31.7335H126.1C125.794 32.1594 125.402 32.5343 124.925 32.858C124.465 33.1647 123.945 33.4032 123.366 33.5736C122.787 33.744 122.156 33.8291 121.475 33.8291ZM122.037 31.9379C122.582 31.9379 123.093 31.8528 123.57 31.6824C124.064 31.512 124.499 31.2735 124.874 30.9668C125.249 30.6431 125.547 30.2597 125.768 29.8167C125.99 29.3737 126.1 28.8882 126.1 28.36V27.2355C124.72 27.2355 123.545 27.3122 122.574 27.4655C121.602 27.6189 120.853 27.8915 120.325 28.2833C119.813 28.6752 119.558 29.2289 119.558 29.9445C119.558 30.4045 119.66 30.7794 119.865 31.069C120.069 31.3587 120.359 31.5801 120.733 31.7335C121.108 31.8698 121.543 31.9379 122.037 31.9379ZM131.261 33.5225V15.0449H133.51V33.5225H131.261ZM141.601 33.8291C140.272 33.8291 139.148 33.5821 138.228 33.088C137.325 32.5769 136.635 31.8016 136.158 30.7623C135.698 29.723 135.468 28.4026 135.468 26.801C135.468 25.1824 135.698 23.862 136.158 22.8397C136.635 21.8004 137.333 21.0337 138.253 20.5396C139.173 20.0285 140.324 19.7729 141.704 19.7729C142.964 19.7729 144.021 20.02 144.873 20.5141C145.725 20.9911 146.363 21.7152 146.789 22.6864C147.232 23.6405 147.454 24.8417 147.454 26.2899V27.3633H137.793C137.827 28.4367 137.981 29.3226 138.253 30.0212C138.543 30.7027 138.969 31.2053 139.531 31.529C140.094 31.8357 140.801 31.9891 141.652 31.9891C142.232 31.9891 142.734 31.9209 143.16 31.7846C143.603 31.6313 143.97 31.4183 144.259 31.1457C144.566 30.8731 144.796 30.5494 144.949 30.1745C145.103 29.7997 145.188 29.3908 145.205 28.9478H147.403C147.386 29.6634 147.249 30.3279 146.994 30.9412C146.738 31.5376 146.363 32.0487 145.869 32.4746C145.375 32.9006 144.77 33.2328 144.055 33.4713C143.339 33.7099 142.521 33.8291 141.601 33.8291ZM137.845 25.6765H145.128C145.128 24.9269 145.043 24.2965 144.873 23.7853C144.702 23.2742 144.455 22.8568 144.131 22.5331C143.825 22.2093 143.458 21.9793 143.033 21.843C142.624 21.6897 142.155 21.613 141.627 21.613C140.843 21.613 140.179 21.7578 139.633 22.0475C139.088 22.3371 138.671 22.7801 138.381 23.3764C138.092 23.9728 137.913 24.7395 137.845 25.6765ZM154.171 33.8291C153.251 33.8291 152.442 33.7354 151.744 33.548C151.045 33.3606 150.466 33.088 150.006 32.7302C149.546 32.3724 149.196 31.9465 148.958 31.4524C148.719 30.9583 148.6 30.396 148.6 29.7656C148.6 29.6804 148.6 29.6038 148.6 29.5356C148.6 29.4504 148.609 29.3823 148.626 29.3312H150.849C150.832 29.3993 150.824 29.4589 150.824 29.5101C150.824 29.5612 150.824 29.6123 150.824 29.6634C150.841 30.2597 150.994 30.7283 151.284 31.069C151.59 31.4098 152.008 31.6483 152.536 31.7846C153.064 31.9209 153.652 31.9891 154.299 31.9891C154.862 31.9891 155.381 31.9209 155.858 31.7846C156.335 31.6313 156.71 31.4098 156.983 31.1201C157.272 30.8134 157.417 30.4301 157.417 29.9701C157.417 29.4078 157.23 28.9819 156.855 28.6922C156.497 28.3856 156.02 28.147 155.424 27.9766C154.827 27.8063 154.206 27.6274 153.558 27.44C153.013 27.2866 152.468 27.1162 151.922 26.9288C151.377 26.7414 150.883 26.5114 150.44 26.2388C150.014 25.9662 149.665 25.6169 149.392 25.191C149.137 24.748 149.009 24.1942 149.009 23.5298C149.009 22.9334 149.128 22.4053 149.367 21.9453C149.622 21.4852 149.98 21.0934 150.44 20.7696C150.9 20.4459 151.454 20.2074 152.101 20.0541C152.766 19.8837 153.498 19.7985 154.299 19.7985C155.151 19.7985 155.892 19.8922 156.523 20.0796C157.17 20.267 157.707 20.5311 158.133 20.8719C158.559 21.2126 158.874 21.6045 159.078 22.0475C159.283 22.4734 159.385 22.9334 159.385 23.4275C159.385 23.5298 159.385 23.632 159.385 23.7342C159.385 23.8194 159.377 23.8876 159.36 23.9387H157.162V23.6576C157.162 23.3168 157.068 22.9931 156.881 22.6864C156.71 22.3627 156.403 22.1071 155.96 21.9197C155.535 21.7152 154.938 21.613 154.171 21.613C153.677 21.613 153.251 21.6556 152.894 21.7408C152.536 21.809 152.238 21.9282 151.999 22.0986C151.761 22.2519 151.582 22.4394 151.462 22.6608C151.343 22.8653 151.284 23.1038 151.284 23.3764C151.284 23.8194 151.428 24.1602 151.718 24.3987C152.008 24.6372 152.391 24.8332 152.868 24.9865C153.362 25.1398 153.89 25.3102 154.453 25.4976C155.049 25.668 155.654 25.8469 156.267 26.0343C156.898 26.2047 157.468 26.4262 157.979 26.6988C158.508 26.9714 158.925 27.3462 159.232 27.8233C159.555 28.2833 159.717 28.8967 159.717 29.6634C159.717 30.379 159.581 31.0009 159.308 31.529C159.036 32.0572 158.644 32.4917 158.133 32.8324C157.639 33.1732 157.051 33.4202 156.369 33.5736C155.705 33.744 154.972 33.8291 154.171 33.8291ZM164.874 33.8291C164.175 33.8291 163.63 33.7014 163.238 33.4458C162.846 33.1732 162.565 32.8239 162.395 32.398C162.224 31.955 162.139 31.4864 162.139 30.9923V21.9708H160.401V20.0796H162.19L162.599 16.3228H164.388V20.0796H166.918V21.9708H164.388V30.6601C164.388 31.0861 164.465 31.4098 164.618 31.6313C164.772 31.8357 165.061 31.9379 165.487 31.9379H166.918V33.4202C166.748 33.5054 166.543 33.5736 166.305 33.6247C166.066 33.6758 165.819 33.7184 165.564 33.7525C165.325 33.8036 165.095 33.8291 164.874 33.8291ZM171.924 33.8291C171.43 33.8291 170.936 33.7695 170.442 33.6502C169.948 33.531 169.488 33.335 169.062 33.0624C168.636 32.7898 168.295 32.415 168.04 31.9379C167.784 31.4438 167.656 30.8305 167.656 30.0979C167.656 29.1778 167.878 28.4196 168.321 27.8233C168.764 27.227 169.377 26.767 170.161 26.4432C170.962 26.1025 171.907 25.8725 172.998 25.7532C174.088 25.6169 175.272 25.5488 176.55 25.5488V24.0153C176.55 23.5213 176.465 23.0953 176.294 22.7375C176.124 22.3797 175.817 22.1071 175.374 21.9197C174.948 21.7152 174.335 21.613 173.534 21.613C172.768 21.613 172.154 21.7152 171.694 21.9197C171.251 22.1071 170.936 22.3542 170.749 22.6608C170.578 22.9675 170.493 23.3083 170.493 23.6831V24.0665H168.321C168.304 23.9813 168.295 23.8961 168.295 23.8109C168.295 23.7257 168.295 23.6235 168.295 23.5042C168.295 22.6864 168.517 22.0049 168.96 21.4597C169.42 20.8974 170.059 20.48 170.876 20.2074C171.694 19.9178 172.631 19.7729 173.688 19.7729C174.812 19.7729 175.749 19.9348 176.499 20.2585C177.266 20.5822 177.836 21.0422 178.211 21.6386C178.603 22.2349 178.799 22.9505 178.799 23.7853V31.069C178.799 31.3927 178.876 31.6227 179.029 31.759C179.182 31.8783 179.37 31.9379 179.591 31.9379H180.588V33.4202C180.349 33.5225 180.085 33.6077 179.796 33.6758C179.506 33.761 179.174 33.8036 178.799 33.8036C178.356 33.8036 177.99 33.7099 177.7 33.5225C177.41 33.3521 177.189 33.1136 177.036 32.8069C176.882 32.4832 176.78 32.1254 176.729 31.7335H176.55C176.243 32.1594 175.851 32.5343 175.374 32.858C174.914 33.1647 174.395 33.4032 173.815 33.5736C173.236 33.744 172.606 33.8291 171.924 33.8291ZM172.487 31.9379C173.032 31.9379 173.543 31.8528 174.02 31.6824C174.514 31.512 174.948 31.2735 175.323 30.9668C175.698 30.6431 175.996 30.2597 176.218 29.8167C176.439 29.3737 176.55 28.8882 176.55 28.36V27.2355C175.17 27.2355 173.994 27.3122 173.023 27.4655C172.052 27.6189 171.302 27.8915 170.774 28.2833C170.263 28.6752 170.007 29.2289 170.007 29.9445C170.007 30.4045 170.11 30.7794 170.314 31.069C170.519 31.3587 170.808 31.5801 171.183 31.7335C171.558 31.8698 171.992 31.9379 172.487 31.9379ZM184.854 33.8291C184.155 33.8291 183.61 33.7014 183.218 33.4458C182.826 33.1732 182.545 32.8239 182.375 32.398C182.205 31.955 182.119 31.4864 182.119 30.9923V21.9708H180.382V20.0796H182.171L182.579 16.3228H184.368V20.0796H186.899V21.9708H184.368V30.6601C184.368 31.0861 184.445 31.4098 184.598 31.6313C184.752 31.8357 185.041 31.9379 185.467 31.9379H186.899V33.4202C186.728 33.5054 186.524 33.5736 186.285 33.6247C186.047 33.6758 185.8 33.7184 185.544 33.7525C185.305 33.8036 185.075 33.8291 184.854 33.8291ZM193.898 33.8291C192.569 33.8291 191.444 33.5821 190.524 33.088C189.621 32.5769 188.931 31.8016 188.454 30.7623C187.994 29.723 187.764 28.4026 187.764 26.801C187.764 25.1824 187.994 23.862 188.454 22.8397C188.931 21.8004 189.63 21.0337 190.55 20.5396C191.47 20.0285 192.62 19.7729 194 19.7729C195.261 19.7729 196.317 20.02 197.169 20.5141C198.021 20.9911 198.66 21.7152 199.086 22.6864C199.529 23.6405 199.75 24.8417 199.75 26.2899V27.3633H190.09C190.124 28.4367 190.277 29.3226 190.55 30.0212C190.84 30.7027 191.266 31.2053 191.828 31.529C192.39 31.8357 193.097 31.9891 193.949 31.9891C194.528 31.9891 195.031 31.9209 195.457 31.7846C195.9 31.6313 196.266 31.4183 196.556 31.1457C196.862 30.8731 197.092 30.5494 197.246 30.1745C197.399 29.7997 197.484 29.3908 197.501 28.9478H199.699C199.682 29.6634 199.546 30.3279 199.29 30.9412C199.035 31.5376 198.66 32.0487 198.166 32.4746C197.672 32.9006 197.067 33.2328 196.351 33.4713C195.636 33.7099 194.818 33.8291 193.898 33.8291ZM190.141 25.6765H197.425C197.425 24.9269 197.34 24.2965 197.169 23.7853C196.999 23.2742 196.752 22.8568 196.428 22.5331C196.121 22.2093 195.755 21.9793 195.329 21.843C194.92 21.6897 194.452 21.613 193.923 21.613C193.14 21.613 192.475 21.7578 191.93 22.0475C191.385 22.3371 190.967 22.7801 190.678 23.3764C190.388 23.9728 190.209 24.7395 190.141 25.6765ZM204.347 33.5225L200.283 20.0796H202.609L204.653 27.4655C204.756 27.8233 204.849 28.2152 204.935 28.6411C205.037 29.05 205.131 29.4334 205.216 29.7912C205.318 30.1319 205.386 30.396 205.42 30.5834H205.574C205.642 30.2597 205.718 29.8934 205.804 29.4845C205.906 29.0756 205.991 28.6837 206.059 28.3089C206.144 27.9341 206.212 27.6444 206.264 27.44L208.104 20.0796H210.532L212.397 27.44C212.465 27.7296 212.542 28.0704 212.627 28.4622C212.712 28.8371 212.798 29.2119 212.883 29.5867C212.985 29.9616 213.053 30.2938 213.087 30.5834H213.241C213.309 30.3108 213.385 29.9956 213.471 29.6378C213.556 29.263 213.649 28.8882 213.752 28.5133C213.854 28.1215 213.948 27.7807 214.033 27.4911L216.052 20.0796H218.199L214.161 33.5225H211.86L210.123 26.571C210.054 26.2473 209.969 25.8725 209.867 25.4465C209.765 25.0035 209.663 24.5606 209.56 24.1176C209.475 23.6576 209.399 23.2572 209.33 22.9164H209.177C209.143 23.172 209.083 23.4957 208.998 23.8876C208.93 24.2794 208.845 24.7139 208.743 25.191C208.64 25.651 208.521 26.111 208.385 26.571L206.647 33.5225H204.347ZM224.71 33.8291C223.381 33.8291 222.256 33.5821 221.336 33.088C220.433 32.5769 219.743 31.8016 219.266 30.7623C218.806 29.723 218.576 28.4026 218.576 26.801C218.576 25.1824 218.806 23.862 219.266 22.8397C219.743 21.8004 220.442 21.0337 221.362 20.5396C222.282 20.0285 223.432 19.7729 224.812 19.7729C226.073 19.7729 227.129 20.02 227.981 20.5141C228.833 20.9911 229.472 21.7152 229.898 22.6864C230.341 23.6405 230.562 24.8417 230.562 26.2899V27.3633H220.902C220.936 28.4367 221.089 29.3226 221.362 30.0212C221.651 30.7027 222.077 31.2053 222.64 31.529C223.202 31.8357 223.909 31.9891 224.761 31.9891C225.34 31.9891 225.843 31.9209 226.269 31.7846C226.712 31.6313 227.078 31.4183 227.368 31.1457C227.674 30.8731 227.904 30.5494 228.058 30.1745C228.211 29.7997 228.296 29.3908 228.313 28.9478H230.511C230.494 29.6634 230.358 30.3279 230.102 30.9412C229.847 31.5376 229.472 32.0487 228.978 32.4746C228.484 32.9006 227.879 33.2328 227.163 33.4713C226.448 33.7099 225.63 33.8291 224.71 33.8291ZM220.953 25.6765H228.237C228.237 24.9269 228.151 24.2965 227.981 23.7853C227.811 23.2742 227.564 22.8568 227.24 22.5331C226.933 22.2093 226.567 21.9793 226.141 21.843C225.732 21.6897 225.263 21.613 224.735 21.613C223.952 21.613 223.287 21.7578 222.742 22.0475C222.197 22.3371 221.779 22.7801 221.49 23.3764C221.2 23.9728 221.021 24.7395 220.953 25.6765ZM238.967 33.8291C238.064 33.8291 237.254 33.6502 236.539 33.2925C235.823 32.9176 235.235 32.3554 234.775 31.6057H234.596L234.366 33.5225H232.577V15.0449H234.826V21.7664H234.98C235.286 21.2893 235.644 20.9059 236.053 20.6163C236.462 20.3267 236.922 20.1137 237.433 19.9774C237.944 19.8411 238.49 19.7729 239.069 19.7729C240.108 19.7729 241.02 20.02 241.803 20.5141C242.587 21.0082 243.192 21.7664 243.618 22.7886C244.061 23.8109 244.282 25.1143 244.282 26.6988C244.282 28.3685 244.069 29.7315 243.643 30.7879C243.218 31.8272 242.613 32.5939 241.829 33.088C241.045 33.5821 240.091 33.8291 238.967 33.8291ZM238.43 31.8613C239.197 31.8613 239.836 31.7079 240.347 31.4013C240.875 31.0946 241.275 30.592 241.548 29.8934C241.82 29.1778 241.957 28.2407 241.957 27.0822V26.5455C241.957 25.421 241.829 24.5094 241.573 23.8109C241.318 23.0953 240.926 22.5757 240.398 22.2519C239.87 21.9112 239.188 21.7408 238.353 21.7408C237.876 21.7408 237.425 21.8175 236.999 21.9708C236.573 22.1242 236.189 22.3882 235.849 22.7631C235.525 23.1379 235.269 23.6405 235.082 24.2709C234.912 24.9013 234.826 25.6765 234.826 26.5966V27.0055C234.826 28.0618 234.946 28.9478 235.184 29.6634C235.44 30.379 235.832 30.9242 236.36 31.299C236.905 31.6739 237.595 31.8613 238.43 31.8613ZM251.014 33.8291C250.094 33.8291 249.284 33.7354 248.586 33.548C247.887 33.3606 247.308 33.088 246.848 32.7302C246.388 32.3724 246.039 31.9465 245.8 31.4524C245.561 30.9583 245.442 30.396 245.442 29.7656C245.442 29.6804 245.442 29.6038 245.442 29.5356C245.442 29.4504 245.451 29.3823 245.468 29.3312H247.691C247.674 29.3993 247.666 29.4589 247.666 29.5101C247.666 29.5612 247.666 29.6123 247.666 29.6634C247.683 30.2597 247.836 30.7283 248.126 31.069C248.432 31.4098 248.85 31.6483 249.378 31.7846C249.906 31.9209 250.494 31.9891 251.141 31.9891C251.704 31.9891 252.223 31.9209 252.7 31.7846C253.177 31.6313 253.552 31.4098 253.825 31.1201C254.114 30.8134 254.259 30.4301 254.259 29.9701C254.259 29.4078 254.072 28.9819 253.697 28.6922C253.339 28.3856 252.862 28.147 252.266 27.9766C251.67 27.8063 251.048 27.6274 250.4 27.44C249.855 27.2866 249.31 27.1162 248.765 26.9288C248.219 26.7414 247.725 26.5114 247.282 26.2388C246.856 25.9662 246.507 25.6169 246.234 25.191C245.979 24.748 245.851 24.1942 245.851 23.5298C245.851 22.9334 245.97 22.4053 246.209 21.9453C246.465 21.4852 246.822 21.0934 247.282 20.7696C247.742 20.4459 248.296 20.2074 248.944 20.0541C249.608 19.8837 250.341 19.7985 251.141 19.7985C251.993 19.7985 252.734 19.8922 253.365 20.0796C254.012 20.267 254.549 20.5311 254.975 20.8719C255.401 21.2126 255.716 21.6045 255.92 22.0475C256.125 22.4734 256.227 22.9334 256.227 23.4275C256.227 23.5298 256.227 23.632 256.227 23.7342C256.227 23.8194 256.219 23.8876 256.202 23.9387H254.004V23.6576C254.004 23.3168 253.91 22.9931 253.723 22.6864C253.552 22.3627 253.246 22.1071 252.803 21.9197C252.377 21.7152 251.78 21.613 251.014 21.613C250.52 21.613 250.094 21.6556 249.736 21.7408C249.378 21.809 249.08 21.9282 248.841 22.0986C248.603 22.2519 248.424 22.4394 248.305 22.6608C248.185 22.8653 248.126 23.1038 248.126 23.3764C248.126 23.8194 248.271 24.1602 248.56 24.3987C248.85 24.6372 249.233 24.8332 249.71 24.9865C250.204 25.1398 250.732 25.3102 251.295 25.4976C251.891 25.668 252.496 25.8469 253.109 26.0343C253.74 26.2047 254.31 26.4262 254.822 26.6988C255.35 26.9714 255.767 27.3462 256.074 27.8233C256.398 28.2833 256.559 28.8967 256.559 29.6634C256.559 30.379 256.423 31.0009 256.151 31.529C255.878 32.0572 255.486 32.4917 254.975 32.8324C254.481 33.1732 253.893 33.4202 253.211 33.5736C252.547 33.744 251.814 33.8291 251.014 33.8291ZM258.572 17.5495V15.0449H260.821V17.5495H258.572ZM258.572 33.5225V20.0796H260.821V33.5225H258.572ZM266.689 33.8291C265.991 33.8291 265.446 33.7014 265.054 33.4458C264.662 33.1732 264.381 32.8239 264.21 32.398C264.04 31.955 263.955 31.4864 263.955 30.9923V21.9708H262.217V20.0796H264.006L264.415 16.3228H266.204V20.0796H268.734V21.9708H266.204V30.6601C266.204 31.0861 266.281 31.4098 266.434 31.6313C266.587 31.8357 266.877 31.9379 267.303 31.9379H268.734V33.4202C268.564 33.5054 268.359 33.5736 268.121 33.6247C267.882 33.6758 267.635 33.7184 267.38 33.7525C267.141 33.8036 266.911 33.8291 266.689 33.8291ZM275.733 33.8291C274.404 33.8291 273.28 33.5821 272.36 33.088C271.457 32.5769 270.767 31.8016 270.29 30.7623C269.83 29.723 269.6 28.4026 269.6 26.801C269.6 25.1824 269.83 23.862 270.29 22.8397C270.767 21.8004 271.465 21.0337 272.385 20.5396C273.305 20.0285 274.456 19.7729 275.836 19.7729C277.096 19.7729 278.153 20.02 279.005 20.5141C279.857 20.9911 280.495 21.7152 280.921 22.6864C281.364 23.6405 281.586 24.8417 281.586 26.2899V27.3633H271.925C271.959 28.4367 272.113 29.3226 272.385 30.0212C272.675 30.7027 273.101 31.2053 273.663 31.529C274.226 31.8357 274.933 31.9891 275.784 31.9891C276.364 31.9891 276.866 31.9209 277.292 31.7846C277.735 31.6313 278.102 31.4183 278.391 31.1457C278.698 30.8731 278.928 30.5494 279.081 30.1745C279.235 29.7997 279.32 29.3908 279.337 28.9478H281.535C281.518 29.6634 281.381 30.3279 281.126 30.9412C280.87 31.5376 280.495 32.0487 280.001 32.4746C279.507 32.9006 278.902 33.2328 278.187 33.4713C277.471 33.7099 276.653 33.8291 275.733 33.8291ZM271.977 25.6765H279.26C279.26 24.9269 279.175 24.2965 279.005 23.7853C278.834 23.2742 278.587 22.8568 278.263 22.5331C277.957 22.2093 277.59 21.9793 277.165 21.843C276.756 21.6897 276.287 21.613 275.759 21.613C274.975 21.613 274.311 21.7578 273.766 22.0475C273.22 22.3371 272.803 22.7801 272.513 23.3764C272.224 23.9728 272.045 24.7395 271.977 25.6765ZM288.303 33.8291C287.383 33.8291 286.574 33.7354 285.876 33.548C285.177 33.3606 284.598 33.088 284.138 32.7302C283.678 32.3724 283.328 31.9465 283.09 31.4524C282.851 30.9583 282.732 30.396 282.732 29.7656C282.732 29.6804 282.732 29.6038 282.732 29.5356C282.732 29.4504 282.741 29.3823 282.758 29.3312H284.981C284.964 29.3993 284.956 29.4589 284.956 29.5101C284.956 29.5612 284.956 29.6123 284.956 29.6634C284.973 30.2597 285.126 30.7283 285.416 31.069C285.722 31.4098 286.14 31.6483 286.668 31.7846C287.196 31.9209 287.784 31.9891 288.431 31.9891C288.994 31.9891 289.513 31.9209 289.99 31.7846C290.467 31.6313 290.842 31.4098 291.115 31.1201C291.404 30.8134 291.549 30.4301 291.549 29.9701C291.549 29.4078 291.362 28.9819 290.987 28.6922C290.629 28.3856 290.152 28.147 289.556 27.9766C288.959 27.8063 288.338 27.6274 287.69 27.44C287.145 27.2866 286.6 27.1162 286.054 26.9288C285.509 26.7414 285.015 26.5114 284.572 26.2388C284.146 25.9662 283.797 25.6169 283.524 25.191C283.269 24.748 283.141 24.1942 283.141 23.5298C283.141 22.9334 283.26 22.4053 283.499 21.9453C283.754 21.4852 284.112 21.0934 284.572 20.7696C285.032 20.4459 285.586 20.2074 286.233 20.0541C286.898 19.8837 287.63 19.7985 288.431 19.7985C289.283 19.7985 290.024 19.8922 290.655 20.0796C291.302 20.267 291.839 20.5311 292.265 20.8719C292.691 21.2126 293.006 21.6045 293.21 22.0475C293.415 22.4734 293.517 22.9334 293.517 23.4275C293.517 23.5298 293.517 23.632 293.517 23.7342C293.517 23.8194 293.509 23.8876 293.492 23.9387H291.294V23.6576C291.294 23.3168 291.2 22.9931 291.013 22.6864C290.842 22.3627 290.535 22.1071 290.092 21.9197C289.667 21.7152 289.07 21.613 288.303 21.613C287.809 21.613 287.383 21.6556 287.026 21.7408C286.668 21.809 286.37 21.9282 286.131 22.0986C285.893 22.2519 285.714 22.4394 285.594 22.6608C285.475 22.8653 285.416 23.1038 285.416 23.3764C285.416 23.8194 285.56 24.1602 285.85 24.3987C286.14 24.6372 286.523 24.8332 287 24.9865C287.494 25.1398 288.022 25.3102 288.585 25.4976C289.181 25.668 289.786 25.8469 290.399 26.0343C291.03 26.2047 291.6 26.4262 292.111 26.6988C292.64 26.9714 293.057 27.3462 293.364 27.8233C293.687 28.2833 293.849 28.8967 293.849 29.6634C293.849 30.379 293.713 31.0009 293.44 31.529C293.168 32.0572 292.776 32.4917 292.265 32.8324C291.771 33.1732 291.183 33.4202 290.501 33.5736C289.837 33.744 289.104 33.8291 288.303 33.8291Z" fill="#060606"/>
</svg>
